<svg width="135" height="149" viewBox="0 0 135 149" fill="none" xmlns="http://www.w3.org/2000/svg">
<path d="M127.155 1.06506C124.108 0.796878 118.585 3.26227 117.083 5.92497C112.937 14.2406 108.738 23.5486 106.164 32.7435C103.821 41.1147 101.445 46.8156 98.8018 54.4531C94.6657 66.4142 92.6358 76.9941 89.1662 81.9191C88.0236 83.5474 93.5898 77.7527 91.0704 76.2221C87.9132 75.3448 85.9917 81.1797 82.0613 80.8789C75.5868 80.1874 87.9646 76.042 89.6784 72.979C94.382 62.7247 82.8421 75.3831 79.2563 75.634C39.2075 93.6656 15.2803 29.0061 56.247 20.1541C62.712 18.4032 80.8121 14.2981 77.8624 25.1634C76.8493 28.1365 74.6994 30.7187 72.5 33.1113C69.0247 36.8755 68.8152 39.1397 60.5449 39.6244C49.8619 40.9825 49.7991 59.0812 60.5202 60.1214C67.5336 61.7171 74.0538 55.7979 73.5092 50.1602C74.3661 47.3136 72.7285 45.9018 75.2516 44.4843C80.6655 39.8504 87.0581 31.7665 87.26 31.4907C89.5737 28.6345 90.2745 28.2495 91.1923 25.1213C93.8393 16.0969 92.1254 18.5393 86.7649 13.5012C83.4019 7.38849 76.0038 7.93444 70.5043 6.8617C68.8152 6.00734 75.4402 5.02846 72.3686 4.08215C70.5766 3.53237 59.8898 5.66636 57.8351 4.86755C55.6814 4.03043 62.7367 1.63592 60.4668 1.06123C56.6697 0.620642 53.3791 2.59372 49.9095 3.32931C45.9246 4.13586 42.0797 5.52947 38.4991 7.46512C33.4871 10.2159 28.6597 13.7234 26.2223 17.706C26.1372 17.9255 25.9814 18.1099 25.7798 18.2298C25.5782 18.3498 25.3425 18.3983 25.1103 18.3676C24.878 18.337 24.6627 18.2289 24.4988 18.0607C24.3348 17.8925 24.2316 17.6738 24.2056 17.4397C23.8476 15.3728 23.1545 13.166 22.4918 10.9439C19.9572 -1.00571 -1.8772 -2.25852 1.31627 12.5664C7.21952 36.2931 28.5112 84.85 39.9559 117.364C42.919 125.779 48.0567 134.087 52.745 141.652C58.6806 151.377 72.698 151.462 78.7479 141.811C83.5771 134.34 88.1512 126.451 91.1676 118.072C104.524 82.3003 120.253 45.9631 134.402 11.7254C136.529 6.58394 132.694 0.929055 127.155 1.06506ZM80.3551 94.8131C84.3027 93.6312 81.5757 98.2037 81.0178 99.2918C76.1238 108.81 68.5657 134.528 61.537 122.76C36.294 80.4958 57.1325 101.759 80.3551 94.8131Z" fill="white"/>
</svg>
